<svg xmlns="http://www.w3.org/2000/svg" xmlns:xlink="http://www.w3.org/1999/xlink" width="20" height="20" viewBox="0 0 20 20">
                    <defs>
                      <clipPath id="clip-path">
                        <rect id="Rectangle_2009" data-name="Rectangle 2009" width="20" height="20" transform="translate(540 1046)" fill="#9c3353" stroke="#707070" stroke-width="1"></rect>
                      </clipPath>
                    </defs>
                    <g id="Mask_Group_133" data-name="Mask Group 133" transform="translate(-540 -1046)">
                      <g id="Group_20" data-name="Group 20" transform="translate(539.52 1046.062)">
                        <path id="Rectangle_Copy_5" data-name="Rectangle Copy 5" d="M0,30.62v0Z" transform="translate(0 -11.193)" fill="#212121"></path>
                        <g id="Group_3688" data-name="Group 3688" transform="translate(-0.85 1)">
                          <g id="book" transform="translate(1.903)">
                            <g id="Group_3687" data-name="Group 3687" transform="translate(0)">
                              <path id="Path_4209" data-name="Path 4209" d="M17.348,9.873V8.156a.541.541,0,0,0-.54-.541,16.246,16.246,0,0,0-3.138.287,4.872,4.872,0,0,0-2.027-1.177,3.779,3.779,0,1,0-4.86,0A4.872,4.872,0,0,0,4.757,7.9,16.249,16.249,0,0,0,1.62,7.615a.541.541,0,0,0-.54.541V9.873A1.626,1.626,0,0,0,0,11.4v1.083a1.626,1.626,0,0,0,1.08,1.531v1.717a.541.541,0,0,0,.54.541,12.54,12.54,0,0,1,7.295,2.11.54.54,0,0,0,.6,0,12.54,12.54,0,0,1,7.295-2.11.541.541,0,0,0,.54-.541V14.017a1.626,1.626,0,0,0,1.08-1.531V11.4A1.626,1.626,0,0,0,17.348,9.873ZM6.515,3.826a2.7,2.7,0,1,1,2.7,2.706A2.724,2.724,0,0,1,6.515,3.826Zm-4.895,9.2a.541.541,0,0,1-.54-.541V11.4a.54.54,0,1,1,1.08,0v1.083A.541.541,0,0,1,1.62,13.028Zm7.054,3.936A13.482,13.482,0,0,0,2.159,15.2V14.017a1.626,1.626,0,0,0,1.08-1.531V11.4a1.626,1.626,0,0,0-1.08-1.531V8.705a12.181,12.181,0,0,1,6.515,1.909Zm.54-7.287A12.815,12.815,0,0,0,6.073,8.229a3.78,3.78,0,0,1,2.061-.614h2.16a3.78,3.78,0,0,1,2.061.614A12.815,12.815,0,0,0,9.214,9.677ZM16.268,15.2a13.483,13.483,0,0,0-6.515,1.763V10.615a12.179,12.179,0,0,1,6.515-1.91V9.873a1.626,1.626,0,0,0-1.08,1.531v1.083a1.626,1.626,0,0,0,1.08,1.531Zm1.08-2.714a.54.54,0,1,1-1.08,0V11.4a.54.54,0,1,1,1.08,0Z" transform="translate(0 -0.001)" fill="#9c3353"></path>
                            </g>
                          </g>
                        </g>
                      </g>
                    </g>
                  </svg>