<svg xmlns="http://www.w3.org/2000/svg" xmlns:xlink="http://www.w3.org/1999/xlink" width="25" height="25" viewBox="0 0 25 25">
                            <defs>
                              <clipPath id="facebook_clip-path">
                                <rect id="Rectangle_2285" data-name="Rectangle 2285" width="12" height="12" transform="translate(901 2657)" fill="#9c3353" stroke="#707070" stroke-width="1"></rect>
                              </clipPath>
                            </defs>
                            <g id="Group_3839" data-name="Group 3839" transform="translate(-896 -2652)">
                              <g id="Rectangle_2282" data-name="Rectangle 2282" transform="translate(896 2652)" fill="none" stroke="#9c3353" stroke-width="1">
                                <rect width="25" height="25" rx="12.5" stroke="none"></rect>
                                <rect x="0.5" y="0.5" width="24" height="24" rx="12" fill="none"></rect>
                              </g>
                              <g id="Mask_Group_221" data-name="Mask Group 221" transform="translate(2 2)" clip-path="url(#facebook_clip-path)">
                                <g id="facebook-logo" transform="translate(903.756 2657)">
                                  <path id="Path_5926" data-name="Path 5926" d="M9.918,0,8.362,0A2.733,2.733,0,0,0,5.484,2.953V4.315H3.919a.245.245,0,0,0-.245.245V6.533a.245.245,0,0,0,.245.245H5.484v4.978A.245.245,0,0,0,5.729,12H7.77a.245.245,0,0,0,.245-.245V6.777H9.844a.245.245,0,0,0,.245-.245V4.56a.245.245,0,0,0-.245-.245H8.015V3.161c0-.555.132-.836.855-.836H9.918a.245.245,0,0,0,.245-.245V.247A.245.245,0,0,0,9.918,0Z" transform="translate(-3.675)" fill="#9c3353"></path>
                                </g>
                              </g>
                            </g>
                          </svg>