<svg xmlns="http://www.w3.org/2000/svg" xmlns:xlink="http://www.w3.org/1999/xlink" width="25" height="25" viewBox="0 0 25 25">
                                <defs>
                                  <clipPath id="linkedin_clip-path">
                                    <rect id="Rectangle_2288" data-name="Rectangle 2288" width="12" height="12" transform="translate(976 2661)" fill="#9c3353" stroke="#707070" stroke-width="1"></rect>
                                  </clipPath>
                                </defs>
                                <g id="Group_3842" data-name="Group 3842" transform="translate(-969 -2652)">
                                  <g id="Rectangle_2284" data-name="Rectangle 2284" transform="translate(969 2652)" fill="none" stroke="#9c3353" stroke-width="1">
                                    <rect width="25" height="25" rx="12.5" stroke="none"></rect>
                                    <rect x="0.5" y="0.5" width="24" height="24" rx="12" fill="none"></rect>
                                  </g>
                                  <g id="Mask_Group_224" data-name="Mask Group 224" transform="translate(0 -2)" clip-path="url(#linkedin_clip-path)">
                                    <g id="linkedin_1_" data-name="linkedin (1)" transform="translate(976 2661.278)">
                                      <path id="Path_5933" data-name="Path 5933" d="M1.455-.013a1.341,1.341,0,1,0-.034,2.674h.017A1.341,1.341,0,1,0,1.455-.013Zm0,0" fill="#9c3353"></path>
                                      <path id="Path_5934" data-name="Path 5934" d="M.152,3.718H2.724v7.739H.152Zm0,0" fill="#9c3353"></path>
                                      <path id="Path_5935" data-name="Path 5935" d="M9.039,3.537a3.223,3.223,0,0,0-2.318,1.3V3.718H4.148v7.739H6.72V7.136A1.763,1.763,0,0,1,6.8,6.508a1.408,1.408,0,0,1,1.32-.941c.931,0,1.3.71,1.3,1.75v4.14H12V7.02C12,4.643,10.731,3.537,9.039,3.537Zm0,0" fill="#9c3353"></path>
                                    </g>
                                  </g>
                                </g>
                              </svg>