<svg xmlns="http://www.w3.org/2000/svg" xmlns:xlink="http://www.w3.org/1999/xlink" width="25" height="25" viewBox="0 0 25 25">
                                <defs>
                                  <clipPath id="insta_clip-path">
                                    <rect id="Rectangle_2003" data-name="Rectangle 2003" width="12" height="12" transform="translate(450 1019)" fill="#9c3353" stroke="#707070" stroke-width="1"></rect>
                                  </clipPath>
                                </defs>
                                <g id="Group_3689" data-name="Group 3689" transform="translate(-443 -1012)">
                                  <g id="Rectangle_548" data-name="Rectangle 548" transform="translate(443 1012)" fill="none" stroke="#9c3353" stroke-width="1">
                                    <rect width="25" height="25" rx="12.5" stroke="none"></rect>
                                    <rect x="0.5" y="0.5" width="24" height="24" rx="12" fill="none"></rect>
                                  </g>
                                  <g id="Mask_Group_125" data-name="Mask Group 125" clip-path="url(#insta_clip-path)">
                                    <g id="instagram" transform="translate(450 1019)">
                                      <g id="Group_3680" data-name="Group 3680">
                                        <g id="Group_3679" data-name="Group 3679">
                                          <path id="Path_4206" data-name="Path 4206" d="M8.25,0H3.75A3.75,3.75,0,0,0,0,3.75v4.5A3.75,3.75,0,0,0,3.75,12h4.5A3.75,3.75,0,0,0,12,8.25V3.75A3.75,3.75,0,0,0,8.25,0Zm2.625,8.25A2.628,2.628,0,0,1,8.25,10.875H3.75A2.628,2.628,0,0,1,1.125,8.25V3.75A2.628,2.628,0,0,1,3.75,1.125h4.5A2.628,2.628,0,0,1,10.875,3.75Z" fill="#9c3353"></path>
                                        </g>
                                      </g>
                                      <g id="Group_3682" data-name="Group 3682">
                                        <g id="Group_3681" data-name="Group 3681">
                                          <path id="Path_4207" data-name="Path 4207" d="M6,3A3,3,0,1,0,9,6,3,3,0,0,0,6,3ZM6,7.875A1.875,1.875,0,1,1,7.875,6,1.878,1.878,0,0,1,6,7.875Z" fill="#9c3353"></path>
                                        </g>
                                      </g>
                                      <g id="Group_3684" data-name="Group 3684">
                                        <g id="Group_3683" data-name="Group 3683">
                                          <circle id="Ellipse_194" data-name="Ellipse 194" cx="0.4" cy="0.4" r="0.4" transform="translate(8.825 2.375)" fill="#9c3353"></circle>
                                        </g>
                                      </g>
                                    </g>
                                  </g>
                                </g>
                              </svg>