<svg xmlns="http://www.w3.org/2000/svg" xmlns:xlink="http://www.w3.org/1999/xlink" width="25" height="25" viewBox="0 0 25 25">
                                <defs>
                                  <clipPath id="youtube_clip-path">
                                    <rect id="Rectangle_2287" data-name="Rectangle 2287" width="12" height="12" transform="translate(974 2657)" fill="#9c3353" stroke="#707070" stroke-width="1"></rect>
                                  </clipPath>
                                </defs>
                                <g id="Group_3841" data-name="Group 3841" transform="translate(-969 -2652)">
                                  <g id="Rectangle_2284" data-name="Rectangle 2284" transform="translate(969 2652)" fill="none" stroke="#9c3353" stroke-width="1">
                                    <rect width="25" height="25" rx="12.5" stroke="none"></rect>
                                    <rect x="0.5" y="0.5" width="24" height="24" rx="12" fill="none"></rect>
                                  </g>
                                  <g id="Mask_Group_223" data-name="Mask Group 223" transform="translate(2 2)" clip-path="url(#youtube_clip-path)">
                                    <g id="youtube-logotype" transform="translate(974.935 2657)">
                                      <g id="Group_3838" data-name="Group 3838">
                                        <path id="Path_5927" data-name="Path 5927" d="M11.2,7.722a1.28,1.28,0,0,0-1.1-1,34.033,34.033,0,0,0-3.793-.14,34.043,34.043,0,0,0-3.793.14,1.279,1.279,0,0,0-1.094,1,10.846,10.846,0,0,0-.179,2.395,10.844,10.844,0,0,0,.177,2.394,1.279,1.279,0,0,0,1.095,1,34.035,34.035,0,0,0,3.793.14,34.011,34.011,0,0,0,3.793-.14,1.28,1.28,0,0,0,1.095-1,10.852,10.852,0,0,0,.177-2.394A10.86,10.86,0,0,0,11.2,7.722Zm-7.065.595H3.4v3.9H2.722v-3.9H2V7.678H4.136Zm1.85,3.9H5.373v-.369a.981.981,0,0,1-.7.415.376.376,0,0,1-.394-.251,1.724,1.724,0,0,1-.054-.5V8.834h.612v2.487a1.906,1.906,0,0,0,.006.238c.015.1.061.143.143.143.123,0,.251-.095.387-.287V8.834h.613v3.378ZM8.312,11.2a2.7,2.7,0,0,1-.062.681.485.485,0,0,1-.489.38.834.834,0,0,1-.633-.374v.327H6.516V7.678h.612V9.159a.829.829,0,0,1,.633-.366.484.484,0,0,1,.489.381,2.594,2.594,0,0,1,.062.679Zm2.31-.564H9.4v.6c0,.313.1.469.313.469a.263.263,0,0,0,.273-.245A3.852,3.852,0,0,0,10,11.042h.625v.089c0,.2-.008.333-.013.394a.872.872,0,0,1-.143.367.847.847,0,0,1-.74.366.877.877,0,0,1-.741-.346,1.309,1.309,0,0,1-.2-.794V9.935a1.315,1.315,0,0,1,.189-.8.87.87,0,0,1,.733-.346.85.85,0,0,1,.722.346,1.328,1.328,0,0,1,.19.8v.7Z" transform="translate(-1.247 -1.647)" fill="#9c3353"></path>
                                        <path id="Path_5928" data-name="Path 5928" d="M12.422,10.263q-.307,0-.307.469v.313h.612v-.313C12.727,10.419,12.624,10.263,12.422,10.263Z" transform="translate(-3.964 -2.566)" fill="#9c3353"></path>
                                        <path id="Path_5929" data-name="Path 5929" d="M9.393,10.263a.439.439,0,0,0-.305.149v2.059a.437.437,0,0,0,.305.151c.177,0,.266-.151.266-.456V10.724C9.66,10.419,9.57,10.263,9.393,10.263Z" transform="translate(-3.207 -2.566)" fill="#9c3353"></path>
                                        <path id="Path_5930" data-name="Path 5930" d="M9.8,5.017a.994.994,0,0,0,.707-.419v.372h.619V1.556h-.619V4.166c-.137.194-.267.29-.391.29-.083,0-.132-.049-.145-.145a1.435,1.435,0,0,1-.008-.24V1.556H9.347v2.7a1.725,1.725,0,0,0,.055.508A.38.38,0,0,0,9.8,5.017Z" transform="translate(-3.272 -0.389)" fill="#9c3353"></path>
                                        <path id="Path_5931" data-name="Path 5931" d="M3.922,2.726V4.581h.686V2.726L5.433,0H4.74L4.272,1.8,3.785,0H3.063c.145.425.3.851.44,1.277A11.286,11.286,0,0,1,3.922,2.726Z" transform="translate(-1.701)" fill="#9c3353"></path>
                                        <path id="Path_5932" data-name="Path 5932" d="M7.145,5a.843.843,0,0,0,.722-.35,1.335,1.335,0,0,0,.192-.8v-1.2a1.338,1.338,0,0,0-.192-.8.842.842,0,0,0-.722-.35.842.842,0,0,0-.72.35,1.327,1.327,0,0,0-.194.8v1.2a1.323,1.323,0,0,0,.194.8A.843.843,0,0,0,7.145,5Zm-.3-2.472c0-.316.1-.473.3-.473s.295.157.295.473V3.968c0,.316-.1.474-.295.474s-.3-.158-.3-.474Z" transform="translate(-2.493 -0.375)" fill="#9c3353"></path>
                                      </g>
                                    </g>
                                  </g>
                                </g>
                              </svg>