<svg xmlns="http://www.w3.org/2000/svg" width="47" height="32" viewBox="0 0 47 32">
                        <defs>
                            <clipPath id="prefix__clip-path">
                                <path id="prefix__Rectangle_2012" d="M0 0H47V32H0z" data-name="Rectangle 2012" transform="translate(1070.72 1060)" style="stroke:#707070;fill:#fff"></path>
                            </clipPath>
                            <style>
                                .prefix__cls-5{fill:#fff}
                            </style>
                        </defs>
                        <g id="prefix__Mask_Group_136" data-name="Mask Group 136" transform="translate(-1070.72 -1060)">
                            <g id="prefix__american-express" transform="translate(1071.02 1052.8)">
                                <path id="prefix__Path_4218" d="M46.4 36.457a2.743 2.743 0 0 1-2.742 2.743H2.743A2.743 2.743 0 0 1 0 36.457V9.943A2.743 2.743 0 0 1 2.743 7.2h40.915A2.743 2.743 0 0 1 46.4 9.943v26.514z" data-name="Path 4218" style="fill:#306fc5"></path>
                                <path id="prefix__Path_4219" d="M1.95 36.457V9.943A2.743 2.743 0 0 1 4.693 7.2h-1.95A2.743 2.743 0 0 0 0 9.943v26.514A2.743 2.743 0 0 0 2.743 39.2h1.95a2.743 2.743 0 0 1-2.743-2.743z" data-name="Path 4219" style="fill:#202121;opacity:.15"></path>
                                <g id="prefix__Group_3691" data-name="Group 3691">
                                    <path id="prefix__Path_4220" d="M6.76 20.006h1.386l-.693-1.764z" class="prefix__cls-5" data-name="Path 4220"></path>
                                    <path id="prefix__Path_4221" d="M14.133 25.929v.819h2.332v.882h-2.332v.946h2.584l1.2-1.324-1.137-1.323z" class="prefix__cls-5" data-name="Path 4221"></path>
                                    <path id="prefix__Path_4222" d="M32.344 18.241l-.756 1.764h1.45z" class="prefix__cls-5" data-name="Path 4222"></path>
                                    <path id="prefix__Path_4223" d="M20.876 29.08v-3.592l-1.639 1.765z" class="prefix__cls-5" data-name="Path 4223"></path>
                                    <path id="prefix__Path_4224" d="M23.963 26.5a.636.636 0 0 0-.694-.567h-1.322v1.134h1.386c.378-.004.63-.193.63-.567z" class="prefix__cls-5" data-name="Path 4224"></path>
                                    <path id="prefix__Path_4225" d="M28.374 26.937a.491.491 0 0 0 .189-.441.351.351 0 0 0-.189-.441 1.226 1.226 0 0 0-.5-.063H26.61V27h1.26a1.226 1.226 0 0 0 .504-.063z" class="prefix__cls-5" data-name="Path 4225"></path>
                                    <path id="prefix__Path_4226" d="M37.448 16.6v.756l-.378-.756h-2.961v.756l-.378-.756H29.7a3.836 3.836 0 0 0-1.764.378V16.6H25.1v.378a1.817 1.817 0 0 0-1.2-.378H13.755l-.693 1.575-.694-1.575H9.155v.756l-.316-.756H6.067l-1.261 2.964-1.449 3.214-.027.063h3.281l.023-.063.378-.945h.819l.378 1.008h3.655v-.756l.315.756h1.827l.315-.756v.756h8.759V21.2h.126c.126 0 .126 0 .126.189v1.386h4.538V22.4a3.77 3.77 0 0 0 1.7.378h1.891l.378-1.008h.882l.378 1.008h3.655v-.945l.567.945h2.962V16.6h-2.835zm-21.362 5.3h-1.008v-3.47l-.063.145-1.466 3.325h-.929l-1.512-3.47v3.47H8.965l-.441-.945H6.382l-.442.945H4.833L6.7 17.485h1.572l1.764 4.222v-4.222h1.67l.03.063.8 1.73.571 1.3.02-.065 1.26-3.025h1.7V21.9zm4.348-3.466h-2.457v.819h2.395v.882h-2.395v.883h2.458v.945h-3.529v-4.478h3.529v.945zm4.495 1.625h.006a.722.722 0 0 1 .062.075 1.212 1.212 0 0 1 .223.739V21.9h-.945v-.5a1.5 1.5 0 0 0-.189-.882.574.574 0 0 0-.185-.127 1.258 1.258 0 0 0-.57-.062H22.2V21.9h-1.072v-4.415h2.395a2.416 2.416 0 0 1 1.26.189 1.065 1.065 0 0 1 .5.98 1.252 1.252 0 0 1-.755 1.163.844.844 0 0 1 .401.238zm2.122 1.841H25.98v-4.415h1.071zm12.288 0h-1.386l-2.016-3.34v2.773l-.007-.007v.574h-2.136l-.378-.945H31.21l-.378 1.008h-1.2a2.2 2.2 0 0 1-1.512-.5 2.215 2.215 0 0 1-.567-1.7 2.583 2.583 0 0 1 .567-1.765 1.985 1.985 0 0 1 1.575-.5h1.008v.945H29.7a1.162 1.162 0 0 0-.819.252 1.481 1.481 0 0 0-.315 1.008 1.372 1.372 0 0 0 .315 1.071 1 1 0 0 0 .756.252h.441l1.449-3.466H33.1l1.765 4.222v-4.234h1.575l1.827 3.088v-3.088h1.072V21.9z" class="prefix__cls-5" data-name="Path 4226"></path>
                                    <path id="prefix__Path_4227" d="M24.031 19.322a.338.338 0 0 0 .049-.068.681.681 0 0 0 .087-.475.352.352 0 0 0-.01-.057v-.015a.353.353 0 0 0-.191-.215 1.234 1.234 0 0 0-.5-.063H22.2v1.008h1.261a1.227 1.227 0 0 0 .5-.063.238.238 0 0 0 .052-.037z" class="prefix__cls-5" data-name="Path 4227"></path>
                                    <path id="prefix__Path_4228" d="M43.057 28.2a2.414 2.414 0 0 0-.315-1.2v-3.024H39.7a1.793 1.793 0 0 0-.87.378v-.378h-2.9a2 2 0 0 0-1.261.378v-.378h-5.16v.378a2.438 2.438 0 0 0-1.386-.378h-3.4v.378a2.394 2.394 0 0 0-1.45-.378h-3.78l-.882.945-.819-.945h-5.676v6.364h5.545l.911-.911.79.911h3.529v-1.449h.315a3.828 3.828 0 0 0 1.449-.189v1.7h2.836v-1.637h.126c.189 0 .189 0 .189.189V30.4h8.57a2.47 2.47 0 0 0 1.449-.378v.378h2.71a2.83 2.83 0 0 0 1.512-.315 2.116 2.116 0 0 0 1-1.7c0-.022.006-.044.008-.065l.002-.12zm-19.85-.378h-1.26v1.638h-2.072l-1.205-1.388-.059-.068-1.386 1.45h-4.038v-4.407h4.1l1.113 1.226.235.257.032-.033 1.324-1.449h3.34a1.635 1.635 0 0 1 1.649.819 1.782 1.782 0 0 1 .052.441c.002 1.26-.88 1.512-1.825 1.512zm6.3-.063a1.43 1.43 0 0 1 .189.819v.882h-1.069v-.567a1.406 1.406 0 0 0-.189-.883c-.126-.189-.378-.189-.756-.189h-1.135v1.638h-1.071v-4.475h2.394a2.542 2.542 0 0 1 1.261.189 1.115 1.115 0 0 1 .567 1.008 1.255 1.255 0 0 1-.756 1.2 1.074 1.074 0 0 1 .567.376zm4.348-1.828H31.4v.819h2.395v.882H31.4v.882h2.458v.945h-3.53v-4.475h3.529zm2.645 3.527h-2.013v-.945H36.5a.533.533 0 0 0 .441-.126.458.458 0 0 0 0-.63.535.535 0 0 0-.378-.126c-1.008-.063-2.206 0-2.206-1.386 0-.63.378-1.324 1.512-1.324h2.079v1.071H36a.935.935 0 0 0-.441.063c-.126.063-.126.189-.126.315 0 .189.126.252.252.315a.8.8 0 0 0 .378.063h.567a1.6 1.6 0 0 1 1.2.378 1.3 1.3 0 0 1 .315.945c-.003.946-.57 1.387-1.645 1.387zm5.419-.441a1.836 1.836 0 0 1-1.324.441h-2.012v-.945H40.6a.532.532 0 0 0 .441-.126.457.457 0 0 0 0-.63.533.533 0 0 0-.378-.126c-1.008-.063-2.206 0-2.206-1.386a1.288 1.288 0 0 1 1.188-1.3 2.349 2.349 0 0 1 .325-.023h2.08v1.071H40.1a.932.932 0 0 0-.441.063.48.48 0 0 0-.127.315c0 .189.063.252.252.315a.8.8 0 0 0 .378.063h.567a1.968 1.968 0 0 1 .674.1 1.357 1.357 0 0 1 .882 1 1.416 1.416 0 0 1 .019.226 1.282 1.282 0 0 1-.381.942z" class="prefix__cls-5" data-name="Path 4228"></path>
                                </g>
                            </g>
                        </g>
                    </svg>