 <svg xmlns="http://www.w3.org/2000/svg" width="20" height="20" viewBox="0 0 20 20">
                    <defs>
                        <clipPath id="prefix__clip-path">
                            <path id="prefix__Rectangle_1720" d="M0 0H20V20H0z" data-name="Rectangle 1720" transform="translate(164 805)" style="stroke:#707070;fill:#9c3353"></path>
                        </clipPath>
                        <style>
                            .prefix__cls-3{fill:#9c3353}
                        </style>
                    </defs>
                    <g id="prefix__Mask_Group_42" data-name="Mask Group 42" transform="translate(-164 -805)">
                        <g id="prefix__candle_3_" data-name="candle (3)" transform="translate(164 805)">
                            <g id="prefix__Group_2036" data-name="Group 2036">
                                <g id="prefix__Group_2035" data-name="Group 2035">
                                    <path id="prefix__Path_449" d="M14.351 8.766h-3.8V7.95a.555.555 0 1 0-1.11 0v.815h-3.8a.555.555 0 0 0-.555.555v10.125a.555.555 0 0 0 .563.555h8.7a.555.555 0 0 0 .555-.555V9.321a.557.557 0 0 0-.553-.555zM13.8 18.893H6.2V9.88h7.6z" class="prefix__cls-3" data-name="Path 449"></path>
                                </g>
                            </g>
                            <g id="prefix__Group_2038" data-name="Group 2038">
                                <g id="prefix__Group_2037" data-name="Group 2037">
                                    <path id="prefix__Path_450" d="M10.441.217A.554.554 0 0 0 10 0a.56.56 0 0 0-.437.213C9.149.736 7.1 3.418 7.1 4.836a2.9 2.9 0 0 0 1.345 2.445.624.624 0 0 0 .5.047.516.516 0 0 0 .335-.382A6.752 6.752 0 0 1 10 5.092a6.752 6.752 0 0 1 .721 1.855.557.557 0 0 0 .839.335A2.9 2.9 0 0 0 12.9 4.84c0-1.418-2.046-4.1-2.459-4.623zm1.091 5.54C11.2 4.773 10.7 3.887 10 3.887s-1.2.886-1.532 1.874a1.787 1.787 0 0 1-.256-.925A9.44 9.44 0 0 1 10 1.481a9.44 9.44 0 0 1 1.788 3.355 1.773 1.773 0 0 1-.256.921z" class="prefix__cls-3" data-name="Path 450"></path>
                                </g>
                            </g>
                        </g>
                    </g>
                </svg>